<svg width="144" height="55" viewBox="0 0 144 55" fill="none" xmlns="http://www.w3.org/2000/svg">
  <g filter="url(#filter0_d_21_119)">
    <rect x="4" width="136" height="47" rx="23.5" fill="#F8FFE5" />
    <path d="M30.946 25.65C30.946 25.254 30.8947 24.9313 30.792 24.682C30.9387 24.462 31.166 24.286 31.474 24.154C31.7967 24.0073 32.0973 23.934 32.376 23.934C32.6693 23.934 32.926 23.978 33.146 24.066C33.894 24.4327 34.268 25.0927 34.268 26.046C34.268 28.5833 33.3953 30.776 31.65 32.624C32.0753 33.0787 32.4713 33.306 32.838 33.306C33.454 33.306 33.762 33.0053 33.762 32.404C33.762 32.2427 33.74 32.074 33.696 31.898C34.3853 32.2207 34.73 32.7047 34.73 33.35C34.73 33.9807 34.5247 34.45 34.114 34.758C33.7033 35.066 33.212 35.22 32.64 35.22C31.7893 35.22 30.9753 34.758 30.198 33.834C28.8633 34.6993 27.448 35.132 25.952 35.132C24.06 35.132 22.608 34.516 21.596 33.284C20.5987 32.052 20.1 30.446 20.1 28.466C20.1 27.1753 20.298 25.9213 20.694 24.704C21.09 23.472 21.6327 22.3793 22.322 21.426C23.026 20.4727 23.906 19.71 24.962 19.138C26.018 18.5513 27.118 18.258 28.262 18.258C29.4207 18.258 30.3667 18.522 31.1 19.05C31.848 19.5633 32.222 20.282 32.222 21.206C32.222 21.91 31.9727 22.5407 31.474 23.098C30.99 23.6407 30.3153 23.912 29.45 23.912C28.9953 23.912 28.592 23.802 28.24 23.582C27.888 23.3473 27.712 22.9807 27.712 22.482C27.712 22.2473 27.7707 22.042 27.888 21.866C28.0053 21.69 28.1227 21.58 28.24 21.536L28.438 21.448C28.438 22.0347 28.6727 22.328 29.142 22.328C29.362 22.328 29.5527 22.2547 29.714 22.108C29.8753 21.9467 29.9633 21.7707 29.978 21.58C29.9927 21.3893 29.9853 21.2427 29.956 21.14C29.9267 21.0227 29.868 20.8907 29.78 20.744C29.5747 20.3773 29.142 20.194 28.482 20.194C27.6167 20.194 26.7953 20.6047 26.018 21.426C25.2407 22.2473 24.6173 23.3033 24.148 24.594C23.6933 25.8847 23.466 27.2047 23.466 28.554C23.466 29.6833 23.6493 30.688 24.016 31.568C24.2213 32.0373 24.522 32.4113 24.918 32.69C25.314 32.954 25.7907 33.086 26.348 33.086C27.272 33.086 28.0933 32.69 28.812 31.898C28.0347 30.71 27.3747 30.116 26.832 30.116C26.7587 30.116 26.568 30.1673 26.26 30.27L26.59 29.104C26.8833 28.8547 27.228 28.73 27.624 28.73C28.3427 28.73 29.1053 29.2433 29.912 30.27C30.6013 28.862 30.946 27.322 30.946 25.65ZM45.5653 24.638C44.964 29.39 44.6633 31.92 44.6633 32.228C44.6633 32.8147 44.876 33.108 45.3013 33.108C45.6827 33.108 46.0933 32.8513 46.5333 32.338C46.988 31.81 47.3473 31.0253 47.6113 29.984C48.0953 30.512 48.3887 30.9227 48.4913 31.216C48.154 32.6387 47.6187 33.6433 46.8853 34.23C46.152 34.8167 45.3967 35.11 44.6193 35.11C43.3433 35.11 42.4853 34.6187 42.0453 33.636C41.2827 34.6187 40.2633 35.11 38.9873 35.11C37.9313 35.11 37.1173 34.846 36.5453 34.318C35.9733 33.79 35.6873 33.1007 35.6873 32.25C35.6873 32.0447 35.724 31.6853 35.7973 31.172C36.1347 28.444 36.3913 26.2733 36.5673 24.66C37.022 24.4987 37.44 24.418 37.8213 24.418C38.2027 24.418 38.4887 24.4327 38.6793 24.462C38.87 24.4913 39.0533 24.6013 39.2293 24.792C39.4053 24.9827 39.4933 25.254 39.4933 25.606L38.7673 31.216C38.738 31.392 38.7233 31.5533 38.7233 31.7C38.7233 32.5653 39.1193 32.998 39.9113 32.998C40.6447 32.998 41.2533 32.6387 41.7373 31.92C41.7373 31.7587 41.752 31.502 41.7813 31.15L42.5073 25.298C42.61 25.0487 42.83 24.8433 43.1673 24.682C43.5047 24.506 43.9227 24.418 44.4213 24.418C44.9347 24.418 45.316 24.4913 45.5653 24.638ZM48.5757 18.808C48.9131 18.456 49.3237 18.28 49.8077 18.28C50.2917 18.28 50.7024 18.456 51.0397 18.808C51.3917 19.1453 51.5677 19.556 51.5677 20.04C51.5677 20.524 51.3917 20.9347 51.0397 21.272C50.7024 21.6093 50.2917 21.778 49.8077 21.778C49.3237 21.778 48.9131 21.6093 48.5757 21.272C48.2384 20.9347 48.0697 20.524 48.0697 20.04C48.0697 19.556 48.2384 19.1453 48.5757 18.808ZM47.6737 25.254C47.8204 24.99 48.0991 24.792 48.5097 24.66C48.9204 24.5133 49.3237 24.44 49.7197 24.44C50.1304 24.44 50.4897 24.4913 50.7977 24.594C50.2257 29.0087 49.9397 31.238 49.9397 31.282C49.8664 31.5753 49.8297 31.8247 49.8297 32.03C49.8297 32.2207 49.8444 32.3893 49.8737 32.536C49.9324 32.9173 50.1964 33.108 50.6657 33.108C51.1497 33.108 51.5897 32.8 51.9857 32.184C52.3964 31.5533 52.7044 30.842 52.9097 30.05C53.0124 30.1087 53.1737 30.2847 53.3937 30.578C53.6137 30.8713 53.7457 31.0913 53.7897 31.238C53.4964 32.4113 52.9977 33.3573 52.2937 34.076C51.5897 34.7947 50.7464 35.154 49.7637 35.154C48.7811 35.154 48.0477 34.912 47.5637 34.428C47.0944 33.944 46.8597 33.3207 46.8597 32.558C46.8597 32.3967 46.8671 32.228 46.8817 32.052L47.6737 25.254ZM58.1115 35.198L51.9955 35.066C51.8049 35.066 51.7095 34.8093 51.7095 34.296C51.7095 33.768 51.8195 33.3573 52.0395 33.064C52.2595 32.4773 52.8682 31.6193 53.8655 30.49C54.1882 30.1233 54.7895 29.4633 55.6695 28.51C56.5495 27.5567 57.1289 26.904 57.4075 26.552L56.2415 26.486C56.0215 27.014 55.6989 27.4467 55.2735 27.784C54.8629 28.1067 54.4009 28.268 53.8875 28.268C53.3009 28.268 52.8242 28.0993 52.4575 27.762C52.0909 27.41 51.9075 26.926 51.9075 26.31C51.9075 25.694 52.1202 25.2027 52.5455 24.836C52.9709 24.4693 53.5575 24.286 54.3055 24.286L60.4215 24.418C60.6122 24.418 60.7075 24.6673 60.7075 25.166C60.7075 25.6793 60.6122 26.0753 60.4215 26.354C60.2455 26.6767 59.9889 27.0213 59.6515 27.388C59.3289 27.74 58.8522 28.2167 58.2215 28.818C57.5909 29.4047 57.1509 29.8227 56.9015 30.072C55.9189 31.0547 55.1855 32.0007 54.7015 32.91L56.1755 32.998C56.3955 32.47 56.7109 32.0447 57.1215 31.722C57.5469 31.3847 58.0162 31.216 58.5295 31.216C59.1162 31.216 59.5929 31.392 59.9595 31.744C60.3262 32.0813 60.5095 32.558 60.5095 33.174C60.5095 33.79 60.2969 34.2813 59.8715 34.648C59.4462 35.0147 58.8595 35.198 58.1115 35.198ZM54.1295 26.332C53.6162 26.332 53.3595 26.5007 53.3595 26.838C53.3595 27.1753 53.5502 27.344 53.9315 27.344C54.5035 27.344 54.9582 27.036 55.2955 26.42L54.3935 26.354C54.3055 26.3393 54.2175 26.332 54.1295 26.332ZM58.2875 33.152C58.8009 33.152 59.0575 32.9833 59.0575 32.646C59.0575 32.3087 58.8669 32.14 58.4855 32.14C57.9135 32.14 57.4589 32.448 57.1215 33.064L58.0235 33.13C58.1115 33.1447 58.1995 33.152 58.2875 33.152ZM78.109 14.912C77.7784 14.7673 77.4477 14.695 77.117 14.695C76.807 14.695 76.497 14.8913 76.187 15.284C75.8977 15.6767 75.7014 16.245 75.598 16.989L73.986 28.49C73.6967 30.5773 72.9734 32.2203 71.816 33.419C70.6794 34.6177 69.2534 35.217 67.538 35.217C65.8227 35.217 64.4897 34.7417 63.539 33.791C62.609 32.8197 62.144 31.6727 62.144 30.35C62.144 29.0067 62.5987 27.87 63.508 26.94C64.438 26.01 65.6057 25.545 67.011 25.545C67.879 25.545 68.561 25.607 69.057 25.731L68.902 27.622C68.5507 27.5393 68.003 27.498 67.259 27.498C66.5357 27.498 65.8847 27.746 65.306 28.242C64.748 28.738 64.469 29.358 64.469 30.102C64.469 30.846 64.6757 31.4247 65.089 31.838C65.5024 32.2307 65.9984 32.427 66.577 32.427C68.313 32.427 69.3257 31.1457 69.615 28.583C70.173 23.4577 70.576 19.996 70.824 18.198C69.584 18.632 68.4887 18.849 67.538 18.849C66.0294 18.849 64.872 18.4977 64.066 17.795C63.2807 17.0923 62.888 16.1727 62.888 15.036C62.888 13.8993 63.291 13.0107 64.097 12.37C64.9237 11.7087 65.957 11.378 67.197 11.378C67.9617 11.378 69.057 11.6157 70.483 12.091C71.9297 12.5663 73.0457 12.804 73.831 12.804C75.2364 12.804 76.4144 12.4423 77.365 11.719C77.8817 12.4423 78.14 13.3 78.14 14.292C78.14 14.4987 78.1297 14.7053 78.109 14.912ZM65.957 15.873C65.957 16.183 66.1224 16.4517 66.453 16.679C66.8044 16.9063 67.321 17.02 68.003 17.02C68.7057 17.02 69.615 16.71 70.731 16.09C69.925 15.904 69.0984 15.6973 68.251 15.47C67.4037 15.222 66.8974 15.098 66.732 15.098C66.2154 15.098 65.957 15.3563 65.957 15.873ZM94.2104 15.904C94.4377 14.3127 94.8924 13.1657 95.5744 12.463C96.2564 11.7603 97.1554 11.409 98.2714 11.409C99.3874 11.409 100.204 11.7397 100.72 12.401C101.258 13.0417 101.526 13.6927 101.526 14.354C101.526 14.5607 101.506 14.7673 101.464 14.974C101.01 17.268 99.4907 19.0557 96.9074 20.337L94.7374 35H89.5294L85.8404 18.663L84.1354 30.753C83.9081 32.2823 83.4327 33.4087 82.7094 34.132C82.0067 34.8553 81.1801 35.217 80.2294 35.217C79.2787 35.217 78.4831 34.938 77.8424 34.38C77.2224 33.822 76.8401 33.0263 76.6954 31.993C76.6747 31.8277 76.6644 31.6623 76.6644 31.497C76.6644 29.451 78.2041 27.6943 81.2834 26.227L82.6164 16.245C83.1331 16.0177 83.5774 15.904 83.9494 15.904C84.3421 15.904 84.6727 15.935 84.9414 15.997C84.4661 15.253 83.7117 14.881 82.6784 14.881C81.6451 14.881 80.7357 15.4183 79.9504 16.493L79.3614 13.827C79.7541 13.2897 80.4361 12.7523 81.4074 12.215C82.3994 11.657 83.4844 11.378 84.6624 11.378C85.8611 11.378 86.8737 11.7397 87.7004 12.463C88.5271 13.1657 89.1264 14.354 89.4984 16.028L92.4124 28.304L94.2104 15.904ZM97.3104 17.671C98.5917 16.7617 99.2324 15.9143 99.2324 15.129C99.2324 14.9843 99.1807 14.819 99.0774 14.633C98.9741 14.447 98.8191 14.354 98.6124 14.354C98.2197 14.354 97.9511 14.571 97.8064 15.005C97.5997 15.6043 97.4344 16.493 97.3104 17.671ZM80.9734 28.8C79.5474 29.606 78.8344 30.3913 78.8344 31.156C78.8344 31.9207 79.1134 32.303 79.6714 32.303C80.0434 32.303 80.3121 32.0653 80.4774 31.59C80.6427 31.094 80.7977 30.2157 80.9424 28.955L80.9734 28.8ZM116.855 15.904C117.082 14.3127 117.537 13.1657 118.219 12.463C118.901 11.7603 119.8 11.409 120.916 11.409C122.032 11.409 122.848 11.7397 123.365 12.401C123.902 13.0417 124.171 13.6927 124.171 14.354C124.171 14.5607 124.15 14.7673 124.109 14.974C123.654 17.268 122.135 19.0557 119.552 20.337L117.382 35H112.174L108.485 18.663L106.78 30.753C106.553 32.2823 106.077 33.4087 105.354 34.132C104.651 34.8553 103.825 35.217 102.874 35.217C101.923 35.217 101.128 34.938 100.487 34.38C99.8669 33.822 99.4846 33.0263 99.3399 31.993C99.3193 31.8277 99.3089 31.6623 99.3089 31.497C99.3089 29.451 100.849 27.6943 103.928 26.227L105.261 16.245C105.778 16.0177 106.222 15.904 106.594 15.904C106.987 15.904 107.317 15.935 107.586 15.997C107.111 15.253 106.356 14.881 105.323 14.881C104.29 14.881 103.38 15.4183 102.595 16.493L102.006 13.827C102.399 13.2897 103.081 12.7523 104.052 12.215C105.044 11.657 106.129 11.378 107.307 11.378C108.506 11.378 109.518 11.7397 110.345 12.463C111.172 13.1657 111.771 14.354 112.143 16.028L115.057 28.304L116.855 15.904ZM119.955 17.671C121.236 16.7617 121.877 15.9143 121.877 15.129C121.877 14.9843 121.825 14.819 121.722 14.633C121.619 14.447 121.464 14.354 121.257 14.354C120.864 14.354 120.596 14.571 120.451 15.005C120.244 15.6043 120.079 16.493 119.955 17.671ZM103.618 28.8C102.192 29.606 101.479 30.3913 101.479 31.156C101.479 31.9207 101.758 32.303 102.316 32.303C102.688 32.303 102.957 32.0653 103.122 31.59C103.287 31.094 103.442 30.2157 103.587 28.955L103.618 28.8Z" fill="#FF7657" />
  </g>
  <defs>
    <filter id="filter0_d_21_119" x="0" y="0" width="144" height="55" filterUnits="userSpaceOnUse" color-interpolation-filters="sRGB">
      <feFlood flood-opacity="0" result="BackgroundImageFix" />
      <feColorMatrix in="SourceAlpha" type="matrix" values="0 0 0 0 0 0 0 0 0 0 0 0 0 0 0 0 0 0 127 0" result="hardAlpha" />
      <feOffset dy="4" />
      <feGaussianBlur stdDeviation="2" />
      <feComposite in2="hardAlpha" operator="out" />
      <feColorMatrix type="matrix" values="0 0 0 0 0 0 0 0 0 0 0 0 0 0 0 0 0 0 0.25 0" />
      <feBlend mode="normal" in2="BackgroundImageFix" result="effect1_dropShadow_21_119" />
      <feBlend mode="normal" in="SourceGraphic" in2="effect1_dropShadow_21_119" result="shape" />
    </filter>
  </defs>
</svg>