<svg width="38" height="44" viewBox="0 0 38 44" fill="none" xmlns="http://www.w3.org/2000/svg">
  <path fill-rule="evenodd" clip-rule="evenodd" d="M38 22C38 34.1503 29.4935 44 19 44C8.50658 44 0 34.1503 0 22C0 9.84973 8.50658 0 19 0C29.4935 0 38 9.84973 38 22ZM23.75 13.75C23.75 16.7876 21.6234 19.25 19 19.25C16.3766 19.25 14.25 16.7876 14.25 13.75C14.25 10.7124 16.3766 8.25 19 8.25C21.6234 8.25 23.75 10.7124 23.75 13.75ZM18.9998 24.75C14.2082 24.75 10.0794 28.0362 8.20263 32.7682C10.8158 36.278 14.6838 38.5 19 38.5C23.3161 38.5 27.184 36.2783 29.7972 32.7685C27.9205 28.0363 23.7916 24.75 18.9998 24.75Z" fill="#4A5568" />
</svg>