<svg width="204" height="46" viewBox="0 0 204 46" fill="none" xmlns="http://www.w3.org/2000/svg">
<path d="M19.72 28C19.72 27.28 19.6267 26.6933 19.44 26.24C19.7067 25.84 20.12 25.52 20.68 25.28C21.2667 25.0133 21.8133 24.88 22.32 24.88C22.8533 24.88 23.32 24.96 23.72 25.12C25.08 25.7867 25.76 26.9867 25.76 28.72C25.76 33.3333 24.1733 37.32 21 40.68C21.7733 41.5067 22.4933 41.92 23.16 41.92C24.28 41.92 24.84 41.3733 24.84 40.28C24.84 39.9867 24.8 39.68 24.72 39.36C25.9733 39.9467 26.6 40.8267 26.6 42C26.6 43.1467 26.2267 44 25.48 44.56C24.7333 45.12 23.84 45.4 22.8 45.4C21.2533 45.4 19.7733 44.56 18.36 42.88C15.9333 44.4533 13.36 45.24 10.64 45.24C7.2 45.24 4.56 44.12 2.72 41.88C0.906667 39.64 2.98023e-08 36.72 2.98023e-08 33.12C2.98023e-08 30.7733 0.36 28.4933 1.08 26.28C1.8 24.04 2.78667 22.0533 4.04 20.32C5.32 18.5867 6.92 17.2 8.84 16.16C10.76 15.0933 12.76 14.56 14.84 14.56C16.9467 14.56 18.6667 15.04 20 16C21.36 16.9333 22.04 18.24 22.04 19.92C22.04 21.2 21.5867 22.3467 20.68 23.36C19.8 24.3467 18.5733 24.84 17 24.84C16.1733 24.84 15.44 24.64 14.8 24.24C14.16 23.8133 13.84 23.1467 13.84 22.24C13.84 21.8133 13.9467 21.44 14.16 21.12C14.3733 20.8 14.5867 20.6 14.8 20.52L15.16 20.36C15.16 21.4267 15.5867 21.96 16.44 21.96C16.84 21.96 17.1867 21.8267 17.48 21.56C17.7733 21.2667 17.9333 20.9467 17.96 20.6C17.9867 20.2533 17.9733 19.9867 17.92 19.8C17.8667 19.5867 17.76 19.3467 17.6 19.08C17.2267 18.4133 16.44 18.08 15.24 18.08C13.6667 18.08 12.1733 18.8267 10.76 20.32C9.34667 21.8133 8.21333 23.7333 7.36 26.08C6.53333 28.4267 6.12 30.8267 6.12 33.28C6.12 35.3333 6.45333 37.16 7.12 38.76C7.49333 39.6133 8.04 40.2933 8.76 40.8C9.48 41.28 10.3467 41.52 11.36 41.52C13.04 41.52 14.5333 40.8 15.84 39.36C14.4267 37.2 13.2267 36.12 12.24 36.12C12.1067 36.12 11.76 36.2133 11.2 36.4L11.8 34.28C12.3333 33.8267 12.96 33.6 13.68 33.6C14.9867 33.6 16.3733 34.5333 17.84 36.4C19.0933 33.84 19.72 31.04 19.72 28ZM46.3006 26.16C45.2073 34.8 44.6606 39.4 44.6606 39.96C44.6606 41.0267 45.0473 41.56 45.8206 41.56C46.514 41.56 47.2606 41.0933 48.0606 40.16C48.8873 39.2 49.5406 37.7733 50.0206 35.88C50.9006 36.84 51.434 37.5867 51.6206 38.12C51.0073 40.7067 50.034 42.5333 48.7006 43.6C47.3673 44.6667 45.994 45.2 44.5806 45.2C42.2606 45.2 40.7006 44.3067 39.9006 42.52C38.514 44.3067 36.6606 45.2 34.3406 45.2C32.4206 45.2 30.9406 44.72 29.9006 43.76C28.8606 42.8 28.3406 41.5467 28.3406 40C28.3406 39.6267 28.4073 38.9733 28.5406 38.04C29.154 33.08 29.6206 29.1333 29.9406 26.2C30.7673 25.9067 31.5273 25.76 32.2206 25.76C32.914 25.76 33.434 25.7867 33.7806 25.84C34.1273 25.8933 34.4606 26.0933 34.7806 26.44C35.1006 26.7867 35.2606 27.28 35.2606 27.92L33.9406 38.12C33.8873 38.44 33.8606 38.7333 33.8606 39C33.8606 40.5733 34.5806 41.36 36.0206 41.36C37.354 41.36 38.4606 40.7067 39.3406 39.4C39.3406 39.1067 39.3673 38.64 39.4206 38L40.7406 27.36C40.9273 26.9067 41.3273 26.5333 41.9406 26.24C42.554 25.92 43.314 25.76 44.2206 25.76C45.154 25.76 45.8473 25.8933 46.3006 26.16ZM51.7741 15.56C52.3874 14.92 53.1341 14.6 54.0141 14.6C54.8941 14.6 55.6407 14.92 56.2541 15.56C56.8941 16.1733 57.2141 16.92 57.2141 17.8C57.2141 18.68 56.8941 19.4267 56.2541 20.04C55.6407 20.6533 54.8941 20.96 54.0141 20.96C53.1341 20.96 52.3874 20.6533 51.7741 20.04C51.1607 19.4267 50.8541 18.68 50.8541 17.8C50.8541 16.92 51.1607 16.1733 51.7741 15.56ZM50.1341 27.28C50.4007 26.8 50.9074 26.44 51.6541 26.2C52.4007 25.9333 53.1341 25.8 53.8541 25.8C54.6007 25.8 55.2541 25.8933 55.8141 26.08C54.7741 34.1067 54.2541 38.16 54.2541 38.24C54.1207 38.7733 54.0541 39.2267 54.0541 39.6C54.0541 39.9467 54.0807 40.2533 54.1341 40.52C54.2407 41.2133 54.7207 41.56 55.5741 41.56C56.4541 41.56 57.2541 41 57.9741 39.88C58.7207 38.7333 59.2807 37.44 59.6541 36C59.8407 36.1067 60.1341 36.4267 60.5341 36.96C60.9341 37.4933 61.1741 37.8933 61.2541 38.16C60.7207 40.2933 59.8141 42.0133 58.5341 43.32C57.2541 44.6267 55.7207 45.28 53.9341 45.28C52.1474 45.28 50.8141 44.84 49.9341 43.96C49.0807 43.08 48.6541 41.9467 48.6541 40.56C48.6541 40.2667 48.6674 39.96 48.6941 39.64L50.1341 27.28ZM69.1119 45.36L57.9919 45.12C57.6452 45.12 57.4719 44.6533 57.4719 43.72C57.4719 42.76 57.6719 42.0133 58.0719 41.48C58.4719 40.4133 59.5785 38.8533 61.3919 36.8C61.9785 36.1333 63.0719 34.9333 64.6719 33.2C66.2719 31.4667 67.3252 30.28 67.8319 29.64L65.7119 29.52C65.3119 30.48 64.7252 31.2667 63.9519 31.88C63.2052 32.4667 62.3652 32.76 61.4319 32.76C60.3652 32.76 59.4985 32.4533 58.8319 31.84C58.1652 31.2 57.8319 30.32 57.8319 29.2C57.8319 28.08 58.2185 27.1867 58.9919 26.52C59.7652 25.8533 60.8319 25.52 62.1919 25.52L73.3119 25.76C73.6585 25.76 73.8319 26.2133 73.8319 27.12C73.8319 28.0533 73.6585 28.7733 73.3119 29.28C72.9919 29.8667 72.5252 30.4933 71.9119 31.16C71.3252 31.8 70.4585 32.6667 69.3119 33.76C68.1652 34.8267 67.3652 35.5867 66.9119 36.04C65.1252 37.8267 63.7919 39.5467 62.9119 41.2L65.5919 41.36C65.9919 40.4 66.5652 39.6267 67.3119 39.04C68.0852 38.4267 68.9385 38.12 69.8719 38.12C70.9385 38.12 71.8052 38.44 72.4719 39.08C73.1385 39.6933 73.4719 40.56 73.4719 41.68C73.4719 42.8 73.0852 43.6933 72.3119 44.36C71.5385 45.0267 70.4719 45.36 69.1119 45.36ZM61.8719 29.24C60.9385 29.24 60.4719 29.5467 60.4719 30.16C60.4719 30.7733 60.8185 31.08 61.5119 31.08C62.5519 31.08 63.3785 30.52 63.9919 29.4L62.3519 29.28C62.1919 29.2533 62.0319 29.24 61.8719 29.24ZM69.4319 41.64C70.3652 41.64 70.8319 41.3333 70.8319 40.72C70.8319 40.1067 70.4852 39.8 69.7919 39.8C68.7519 39.8 67.9252 40.36 67.3119 41.48L68.9519 41.6C69.1119 41.6267 69.2719 41.64 69.4319 41.64ZM115.726 6.768C115.097 6.49267 114.467 6.355 113.838 6.355C113.248 6.355 112.658 6.72866 112.068 7.476C111.517 8.22333 111.144 9.305 110.947 10.721L107.879 32.61C107.328 36.5827 105.952 39.7097 103.749 41.991C101.586 44.2723 98.8715 45.413 95.6069 45.413C92.3422 45.413 89.8052 44.5083 87.9959 42.699C86.2259 40.8503 85.3409 38.6673 85.3409 36.15C85.3409 33.5933 86.2062 31.43 87.9369 29.66C89.7069 27.89 91.9292 27.005 94.6039 27.005C96.2559 27.005 97.5539 27.123 98.4979 27.359L98.2029 30.958C97.5342 30.8007 96.4919 30.722 95.0759 30.722C93.6992 30.722 92.4602 31.194 91.3589 32.138C90.2969 33.082 89.7659 34.262 89.7659 35.678C89.7659 37.094 90.1592 38.1953 90.9459 38.982C91.7325 39.7293 92.6765 40.103 93.7779 40.103C97.0819 40.103 99.0092 37.6643 99.5599 32.787C100.622 23.0323 101.389 16.444 101.861 13.022C99.5009 13.848 97.4162 14.261 95.6069 14.261C92.7355 14.261 90.5329 13.5923 88.9989 12.255C87.5042 10.9177 86.7569 9.16733 86.7569 7.004C86.7569 4.84066 87.5239 3.14933 89.0579 1.93C90.6312 0.671332 92.5979 0.0419986 94.9579 0.0419986C96.4132 0.0419986 98.4979 0.494332 101.212 1.399C103.965 2.30367 106.089 2.756 107.584 2.756C110.259 2.756 112.501 2.06766 114.31 0.690997C115.293 2.06766 115.785 3.7 115.785 5.588C115.785 5.98133 115.765 6.37466 115.726 6.768ZM92.5979 8.597C92.5979 9.187 92.9125 9.69833 93.5419 10.131C94.2105 10.5637 95.1939 10.78 96.4919 10.78C97.8292 10.78 99.5599 10.19 101.684 9.01C100.15 8.656 98.5765 8.26266 96.9639 7.83C95.3512 7.358 94.3875 7.122 94.0729 7.122C93.0895 7.122 92.5979 7.61367 92.5979 8.597ZM146.37 8.656C146.803 5.62733 147.668 3.44433 148.966 2.107C150.264 0.769664 151.975 0.100998 154.099 0.100998C156.223 0.100998 157.777 0.730331 158.76 1.989C159.783 3.20833 160.294 4.44733 160.294 5.706C160.294 6.09933 160.255 6.49267 160.176 6.886C159.311 11.252 156.42 14.6543 151.503 17.093L147.373 45H137.461L130.44 13.907L127.195 36.917C126.763 39.8277 125.858 41.9713 124.481 43.348C123.144 44.7247 121.571 45.413 119.761 45.413C117.952 45.413 116.438 44.882 115.218 43.82C114.038 42.758 113.311 41.2437 113.035 39.277C112.996 38.9623 112.976 38.6477 112.976 38.333C112.976 34.439 115.907 31.0957 121.767 28.303L124.304 9.305C125.288 8.87233 126.133 8.656 126.841 8.656C127.589 8.656 128.218 8.715 128.729 8.833C127.825 7.417 126.389 6.709 124.422 6.709C122.456 6.709 120.725 7.73166 119.23 9.777L118.109 4.703C118.857 3.68033 120.155 2.65766 122.003 1.635C123.891 0.572999 125.956 0.0419986 128.198 0.0419986C130.48 0.0419986 132.407 0.730331 133.98 2.107C135.554 3.44433 136.694 5.706 137.402 8.892L142.948 32.256L146.37 8.656ZM152.27 12.019C154.709 10.2883 155.928 8.67566 155.928 7.181C155.928 6.90567 155.83 6.591 155.633 6.237C155.437 5.883 155.142 5.706 154.748 5.706C154.001 5.706 153.49 6.119 153.214 6.945C152.821 8.08566 152.506 9.777 152.27 12.019ZM121.177 33.2C118.463 34.734 117.106 36.2287 117.106 37.684C117.106 39.1393 117.637 39.867 118.699 39.867C119.407 39.867 119.919 39.4147 120.233 38.51C120.548 37.566 120.843 35.8943 121.118 33.495L121.177 33.2ZM189.468 8.656C189.901 5.62733 190.766 3.44433 192.064 2.107C193.362 0.769664 195.073 0.100998 197.197 0.100998C199.321 0.100998 200.875 0.730331 201.858 1.989C202.881 3.20833 203.392 4.44733 203.392 5.706C203.392 6.09933 203.353 6.49267 203.274 6.886C202.409 11.252 199.518 14.6543 194.601 17.093L190.471 45H180.559L173.538 13.907L170.293 36.917C169.86 39.8277 168.956 41.9713 167.579 43.348C166.242 44.7247 164.668 45.413 162.859 45.413C161.05 45.413 159.535 44.882 158.316 43.82C157.136 42.758 156.408 41.2437 156.133 39.277C156.094 38.9623 156.074 38.6477 156.074 38.333C156.074 34.439 159.004 31.0957 164.865 28.303L167.402 9.305C168.385 8.87233 169.231 8.656 169.939 8.656C170.686 8.656 171.316 8.715 171.827 8.833C170.922 7.417 169.487 6.709 167.52 6.709C165.553 6.709 163.823 7.73166 162.328 9.777L161.207 4.703C161.954 3.68033 163.252 2.65766 165.101 1.635C166.989 0.572999 169.054 0.0419986 171.296 0.0419986C173.577 0.0419986 175.505 0.730331 177.078 2.107C178.651 3.44433 179.792 5.706 180.5 8.892L186.046 32.256L189.468 8.656ZM195.368 12.019C197.807 10.2883 199.026 8.67566 199.026 7.181C199.026 6.90567 198.928 6.591 198.731 6.237C198.534 5.883 198.239 5.706 197.846 5.706C197.099 5.706 196.587 6.119 196.312 6.945C195.919 8.08566 195.604 9.777 195.368 12.019ZM164.275 33.2C161.561 34.734 160.204 36.2287 160.204 37.684C160.204 39.1393 160.735 39.867 161.797 39.867C162.505 39.867 163.016 39.4147 163.331 38.51C163.646 37.566 163.941 35.8943 164.216 33.495L164.275 33.2Z" fill="#FF7657"/>
</svg>
