<svg width="431" height="447" viewBox="0 0 431 447" fill="none" xmlns="http://www.w3.org/2000/svg">
<path d="M272.821 2.77687C300.941 -12.114 325.968 36.6616 348.322 59.4387C368.332 79.8266 396.016 100.325 396.728 129.027C397.519 160.862 346.145 180.624 352.107 211.894C359.46 250.462 420.823 260.091 429.037 298.481C436.142 331.691 424.112 390.562 390.49 391.294C337.628 392.446 311.981 287.693 261.077 302.141C210.81 316.408 248.647 463.335 199.507 445.501C146.921 426.416 222.665 327.609 195.43 278.315C181.73 253.519 140.154 294.975 112.779 288.529C71.9612 278.918 -12.6807 272.487 1.60581 232.679C19.6775 182.323 115.982 223.308 150.71 182.836C171.742 158.326 98.6025 111.477 123.345 90.8039C148.688 69.6283 183.581 148.364 211.994 131.631C253.203 107.363 230.575 25.1485 272.821 2.77687Z" fill="#FF7657" fill-opacity="0.57"/>
</svg>
