<svg width="40" height="40" viewBox="0 0 40 40" fill="none" xmlns="http://www.w3.org/2000/svg">
  <path d="M0 25V32.5C0 36.6423 8.95431 40 20 40C31.0457 40 40 36.6423 40 32.5V25C40 29.1423 31.0457 32.5 20 32.5C8.95431 32.5 0 29.1423 0 25Z" fill="#374151" />
  <path d="M0 12.5V20C0 24.1423 8.95431 27.5 20 27.5C31.0457 27.5 40 24.1423 40 20V12.5C40 16.6421 31.0457 20 20 20C8.95431 20 0 16.6421 0 12.5Z" fill="#374151" />
  <path d="M40 7.5C40 11.6421 31.0457 15 20 15C8.95431 15 0 11.6421 0 7.5C0 3.35788 8.95431 0 20 0C31.0457 0 40 3.35788 40 7.5Z" fill="#374151" />
</svg>